<?xml version="1.0" encoding="utf-8"?>
<!-- Generator: Adobe Illustrator 26.4.1, SVG Export Plug-In . SVG Version: 6.00 Build 0)  -->
<svg version="1.1" id="uuid-1b4f74e5-405c-4fa2-9832-10712ceeef61"
	 xmlns="http://www.w3.org/2000/svg" xmlns:xlink="http://www.w3.org/1999/xlink" x="0px" y="0px" viewBox="0 0 470.4 42"
	 style="enable-background:new 0 0 470.4 42;" xml:space="preserve">
<style type="text/css">
	.st0{fill:#253B7E;}
	.st1{fill:url(#SVGID_1_);}
	.st2{fill:#2B4695;}
	.st3{fill:#3759BE;}
</style>
<g>
	<g>
		<g>
			<g>
				<path class="st0" d="M27.9,34.1c-0.3-0.8-0.5-1.6-0.6-2c-0.1-0.3-0.3-0.5-0.4-0.8c-0.1-0.2-0.4-0.7-0.6-1.3
					c-0.5-1.3-1.5-2.2-2.8-2.7l0,0c-0.8-0.4-1.7-0.4-2.6-0.4h-0.4c-1.4,0.2-2,0.3-3.7,0.4l-1.3-0.1c-2.1-0.2-4.1,0.3-6.1-0.5
					c-0.4-0.2-1.4-0.7-2.2-1.3c-0.6-0.4-1.1-0.9-1.4-1.6l-0.8-1.6L4.6,21c0,0-0.9-1.1-1-1.6c-0.1-0.4,0-0.8,0.4-1.1
					c0.4-0.4,1.3-0.7,1.7-0.8l4.8-1.9l3.1-1.5c0.1,0,0.3-0.1,0.4-0.2l0.1-0.1c0.3-0.2,0.5-0.4,0.7-0.7c0,0,0.8-2.2,1.4-2.7l0.7-0.7
					c1.9-1.8,4-3.2,6.5-4.1c1.1-0.4,2-0.7,2.2-0.8c1.4-0.3,3-0.3,4.4,0h0.1C30.8,5,31.4,5.2,32,5.4C28.6,2.1,23.9,0,18.8,0l0,0
					C8.4,0,0,8.4,0,18.8l0,0c0,10.4,8.4,18.8,18.8,18.8h10.3C28.6,36.5,28.3,35.3,27.9,34.1z"/>
				<path class="st0" d="M18.9,12.6c-0.9-0.2-1.8,0.4-2.1,1.3l-0.2,0.5c-0.1,0.3,0.1,0.4,0.4,0.5l0.6,0.2c1.3,0.3,2.6-0.5,3-1.8l0,0
					c0-0.2-0.1-0.3-0.2-0.4L18.9,12.6z"/>
			</g>
		</g>
		
			<linearGradient id="SVGID_1_" gradientUnits="userSpaceOnUse" x1="30.5558" y1="806.8253" x2="42.4583" y2="839.527" gradientTransform="matrix(1 0 0 1 0 -800)">
			<stop  offset="0" style="stop-color:#253B7E"/>
			<stop  offset="1" style="stop-color:#697FC3"/>
		</linearGradient>
		<path class="st1" d="M47.1,37.8H36.5c-0.9,0-1.9-0.7-2.2-1.6l-9.4-25.9c-0.4-0.9,0.2-1.6,1.1-1.6h10.6c0.9,0,1.9,0.7,2.2,1.6
			l9.4,25.8C48.4,37,48,37.8,47.1,37.8z"/>
	</g>
	<g>
		<g>
			<path class="st2" d="M53.7,0h12.7c4.1,0,7.1,0.3,9.2,0.8s3.8,1.4,5,2.9s1.9,3.9,1.9,7.1c0,2.2-0.5,3.8-1.3,4.6
				c-0.9,0.8-2.6,1.5-5.3,2c2.9,0.5,4.9,1.3,6,2.5c1,1.2,1.6,3,1.6,5.5v3.5c0,2.5-0.4,4.4-1.1,5.7c-0.8,1.2-2,2.1-3.6,2.5
				c-1.7,0.5-5.1,0.7-10.2,0.7H53.9V0H53.7z M66.5,6.4v8.4c0.6,0,0.9,0,1.2,0c1.2,0,2.1-0.3,2.4-0.8c0.4-0.5,0.5-1.8,0.5-4.1
				c0-1.2-0.2-2-0.5-2.5c-0.3-0.5-0.7-0.8-1.1-0.9C68.5,6.4,67.8,6.4,66.5,6.4z M66.5,20.8v10.6c1.8,0,2.9-0.3,3.4-0.7
				c0.5-0.4,0.8-1.3,0.8-2.8v-3.5c0-1.6-0.2-2.6-0.7-2.9C69.6,21,68.4,20.8,66.5,20.8z"/>
			<path class="st2" d="M88,0h9.5c6.1,0,10.4,0.2,12.6,0.7c2.2,0.5,3.9,1.1,5,2.2s1.8,2.1,2.1,3.3s0.4,3.6,0.4,7.2v13.2
				c0,3.4-0.2,5.7-0.7,6.8c-0.4,1.1-1.1,2.1-2.2,2.6c-1,0.7-2.3,1.1-3.8,1.3c-1.5,0.3-3.8,0.4-6.9,0.4H87.9L88,0L88,0z M100.8,6.4
				v24.9c1.8,0,2.9-0.3,3.4-0.8c0.4-0.6,0.7-2.1,0.7-4.6V11.1c0-1.7-0.1-2.8-0.2-3.3c-0.1-0.5-0.5-0.8-0.9-1
				C103.2,6.5,102.2,6.4,100.8,6.4z"/>
			<path class="st2" d="M171.6,0L166,37.9h-16c-1.4-5.9-2.7-12.5-3.9-19.8c-0.5,3.2-1.7,9.8-3.6,19.8h-15.9L120.9,0h12.4l1.3,13.2
				l1.3,12.7c0.5-6.6,1.6-15.3,3.5-26h13.2c0.2,1.1,0.7,5.3,1.4,12.5l1.4,14.3c0.8-9.2,1.9-18.1,3.6-26.9L171.6,0L171.6,0z"/>
			<path class="st2" d="M186.4,0v4.9h-12.6V0H186.4z M186.4,6.8v31h-12.6v-31H186.4z"/>
			<path class="st2" d="M203.3,6.8l-0.2,2.8c0.8-1.1,2-2,3.3-2.5c1.3-0.6,2.7-0.8,4.4-0.8c2.1,0,3.8,0.4,5.2,1.1
				c1.3,0.8,2.2,1.7,2.5,2.9c0.4,1.1,0.6,3.1,0.6,5.9v21.7h-12.3V16.4c0-2.2-0.1-3.4-0.3-3.9c-0.2-0.5-0.7-0.7-1.5-0.7
				c-0.8,0-1.4,0.3-1.6,0.8c-0.2,0.6-0.4,2-0.4,4.3v21h-12.3v-31h12.5V6.8z"/>
			<path class="st2" d="M251.2,0v37.9h-12.3v-2.3c-1.1,0.9-2.4,1.6-3.7,2.1c-1.3,0.5-2.6,0.7-4.1,0.7c-1.9,0-3.6-0.4-4.9-1.1
				c-1.4-0.8-2.3-1.7-2.6-2.6c-0.4-1-0.6-2.6-0.6-4.9V15.1c0-2.4,0.2-4.1,0.6-5.1c0.4-1,1.3-1.9,2.7-2.6s3.1-1.1,5.1-1.1
				c1.5,0,2.9,0.2,4.2,0.7c1.2,0.5,2.5,1,3.4,1.9V0L251.2,0L251.2,0z M238.9,14.6c0-1.1-0.1-1.9-0.4-2.3c-0.3-0.4-0.8-0.6-1.5-0.6
				s-1.2,0.2-1.5,0.6c-0.3,0.4-0.4,1.1-0.4,2.4v15.2c0,1.2,0.1,2.1,0.4,2.5c0.3,0.4,0.7,0.6,1.4,0.6c0.8,0,1.3-0.2,1.6-0.7
				c0.3-0.5,0.4-1.5,0.4-3.3L238.9,14.6L238.9,14.6z"/>
		</g>
		<g>
			<path class="st3" d="M266.9,0h9.5c6.1,0,10.4,0.2,12.6,0.7c2.2,0.5,3.9,1.1,5,2.2s1.8,2.1,2.1,3.3s0.5,3.6,0.5,7.2v13.2
				c0,3.4-0.2,5.7-0.7,6.8c-0.4,1.1-1.1,2.1-2.2,2.6c-1,0.7-2.3,1.1-3.8,1.3c-1.5,0.3-3.8,0.4-6.9,0.4h-16.1V0z M279.7,6.4v24.9
				c1.8,0,2.9-0.3,3.4-0.8c0.5-0.6,0.7-2.1,0.7-4.6V11.1c0-1.7-0.1-2.8-0.2-3.3c-0.2-0.5-0.5-0.8-0.9-1C282.1,6.5,281,6.4,279.7,6.4
				z"/>
			<path class="st3" d="M328.6,22.9h-15.9v6.7c0,1.4,0.1,2.3,0.4,2.7c0.3,0.5,0.8,0.6,1.5,0.6c0.9,0,1.5-0.3,1.9-0.8
				c0.3-0.6,0.5-1.6,0.5-3.1v-4.1h11.6v2.3c0,1.9-0.2,3.4-0.5,4.4c-0.3,1-1,2.2-2.2,3.3c-1.1,1.1-2.6,2.1-4.3,2.6
				c-1.8,0.6-4,0.8-6.7,0.8c-2.5,0-4.9-0.3-6.9-0.8c-2-0.6-3.5-1.3-4.6-2.4c-1.1-1-1.9-2.1-2.3-3.3c-0.4-1.2-0.7-2.9-0.7-5.3v-9.1
				c0-2.7,0.5-4.8,1.4-6.4s2.5-2.7,4.6-3.6c2.2-0.8,4.6-1.2,7.5-1.2c3.4,0,6.2,0.5,8.5,1.5s3.8,2.4,4.7,4c0.9,1.7,1.3,4,1.3,7
				L328.6,22.9L328.6,22.9z M316.3,17.8v-2.3c0-1.6-0.1-2.6-0.4-3.1c-0.2-0.5-0.7-0.7-1.3-0.7c-0.8,0-1.4,0.2-1.6,0.6
				c-0.2,0.4-0.3,1.5-0.3,3.2v2.3H316.3z"/>
			<path class="st3" d="M357.7,16.7h-10.9V15c0-1.4-0.1-2.4-0.3-2.7c-0.2-0.4-0.8-0.6-1.6-0.6c-0.7,0-1.2,0.2-1.5,0.6
				c-0.3,0.4-0.5,0.8-0.5,1.6c0,0.9,0.1,1.6,0.3,2.1c0.2,0.5,0.7,0.9,1.5,1.4c0.8,0.6,2.6,1.3,5.3,2.4c3.6,1.3,5.9,2.6,7,3.8
				c1.1,1.2,1.7,2.9,1.7,5.2c0,2.5-0.4,4.4-1.2,5.8c-0.8,1.3-2.3,2.3-4.2,2.9c-2,0.7-4.4,1-7.2,1c-3.1,0-5.8-0.4-8-1.1
				c-2.2-0.8-3.8-1.8-4.5-3c-0.8-1.3-1.2-3.2-1.2-5.8V27h10.9v2c0,1.7,0.1,2.7,0.4,3.2c0.3,0.5,0.8,0.8,1.6,0.8
				c0.8,0,1.5-0.2,1.8-0.5c0.4-0.4,0.5-1,0.5-2.1c0-1.5-0.2-2.4-0.7-2.7c-0.5-0.4-2.8-1.5-7.2-3.3c-3.6-1.5-5.8-2.9-6.6-4.2
				c-0.8-1.2-1.2-2.7-1.2-4.5c0-2.5,0.5-4.3,1.2-5.5c0.8-1.1,2.3-2.1,4.3-2.7c2.1-0.7,4.4-0.9,7.1-0.9c2.6,0,4.9,0.3,6.8,0.8
				c1.9,0.6,3.3,1.2,4.3,2.1c1,0.8,1.6,1.6,1.8,2.4c0.2,0.8,0.3,1.9,0.3,3.4L357.7,16.7L357.7,16.7z"/>
			<path class="st3" d="M388.3,6.8l-5,12.4l6.4,18.7h-11.8l-3.8-13.5v13.5h-12.3V0h12.3v15.9l3.8-9.1H388.3z"/>
			<path class="st3" d="M404.5,2.7v4.9h3.3v4.9h-3.3v16.6c0,2.1,0.1,3.2,0.4,3.4c0.3,0.2,1.4,0.4,3.4,0.4v5h-4.9
				c-2.8,0-4.8-0.1-5.9-0.3s-2.3-0.6-3.1-1.2c-0.9-0.7-1.5-1.4-1.7-2.3c-0.2-0.8-0.4-2.8-0.4-5.9V12.5h-2.6V7.6h2.6V2.7L404.5,2.7
				L404.5,2.7z"/>
			<path class="st3" d="M438.2,17.7v7.6c0,2.8-0.2,4.8-0.6,6.1c-0.4,1.3-1.1,2.5-2.4,3.7c-1.2,1.1-2.7,2-4.6,2.5
				c-1.9,0.5-4.1,0.8-6.4,0.8c-2.7,0-5-0.2-6.9-0.7c-1.9-0.5-3.3-1.1-4.3-2.1c-1-0.9-1.8-2.1-2.3-3.4c-0.5-1.3-0.7-3.3-0.7-5.9v-7.9
				c0-2.9,0.4-5.1,1.2-6.8c0.8-1.6,2.3-2.9,4.3-3.9s4.8-1.5,8-1.5c2.7,0,5.1,0.3,7.1,0.9s3.5,1.4,4.5,2.5c1,1,1.8,2.1,2.2,3.1
				C438,13.9,438.2,15.5,438.2,17.7z M426,15.3c0-1.6-0.1-2.5-0.4-3c-0.2-0.4-0.7-0.7-1.4-0.7c-0.8,0-1.2,0.2-1.4,0.7
				c-0.3,0.4-0.4,1.4-0.4,3v14c0,1.5,0.1,2.5,0.4,2.8c0.3,0.5,0.8,0.7,1.4,0.7c0.8,0,1.2-0.2,1.4-0.6s0.4-1.3,0.4-2.6V15.3z"/>
			<path class="st3" d="M454.7,6.8l-0.2,2.7c1.1-1.1,2.3-1.9,3.6-2.5c1.3-0.6,2.7-0.8,4.3-0.8c1.9,0,3.6,0.4,4.9,1.1
				c1.4,0.8,2.3,1.7,2.5,2.7s0.5,2.7,0.5,5.2v13c0,2.8-0.2,4.8-0.7,6c-0.5,1.2-1.3,2.2-2.6,2.8c-1.3,0.8-2.9,1-4.9,1
				c-1.5,0-2.9-0.3-4.2-0.8c-1.3-0.6-2.5-1.3-3.6-2.5V42h-12.3V6.6h12.6V6.8z M458.2,15.8c0-1.9-0.1-3.1-0.3-3.5
				c-0.2-0.4-0.7-0.6-1.5-0.6c-0.8,0-1.3,0.2-1.6,0.7c-0.2,0.5-0.4,1.6-0.4,3.4v12.8c0,1.9,0.1,3,0.4,3.5c0.3,0.5,0.8,0.7,1.6,0.7
				c0.8,0,1.3-0.2,1.5-0.7c0.2-0.5,0.3-1.5,0.3-3.1V15.8z"/>
		</g>
	</g>
</g>
</svg>
